<svg xmlns="http://www.w3.org/2000/svg" width="21" height="23" viewBox="0 0 21 23" fill="none">
    <path
        d="M15 20.125V21.9219C15 22.5173 14.4963 23 13.875 23H1.125C0.503672 23 0 22.5173 0 21.9219V5.39062C0 4.79519 0.503672 4.3125 1.125 4.3125H4.5V17.6094C4.5 18.9965 5.67755 20.125 7.125 20.125H15ZM15 4.67188V0H7.125C6.50367 0 6 0.482686 6 1.07812V17.6094C6 18.2048 6.50367 18.6875 7.125 18.6875H19.875C20.4963 18.6875 21 18.2048 21 17.6094V5.75H16.125C15.5063 5.75 15 5.26484 15 4.67188ZM20.6705 3.27799L17.5795 0.315756C17.3685 0.113582 17.0824 1.49498e-06 16.784 0L16.5 0V4.3125H21V4.04032C21 3.75439 20.8815 3.48018 20.6705 3.27799Z"
        fill="#FF9900" />
</svg>