<svg width="359" height="307" viewBox="0 0 359 307" fill="none" xmlns="http://www.w3.org/2000/svg">
    <path fill-rule="evenodd" clip-rule="evenodd"
        d="M283.302 1.3646C283.43 1.82589 283.616 2.50747 283.853 3.39149L280.955 4.16832C280.72 3.29117 280.535 2.61619 280.41 2.16121C280.348 1.93372 280.3 1.76124 280.267 1.64599L280.231 1.51633L280.22 1.47643L280.219 1.47461L281.663 1.06678C283.107 0.659379 283.107 0.6594 283.107 0.659424L283.108 0.662711L283.12 0.705929L283.157 0.840097C283.19 0.958376 283.239 1.13395 283.302 1.3646ZM285.329 9.04338C285.758 10.7256 286.237 12.6328 286.752 14.7388L283.838 15.452C283.325 13.356 282.849 11.4584 282.422 9.78512L285.329 9.04338ZM288.104 20.3714C288.526 22.1678 288.964 24.062 289.412 26.0433L286.486 26.7047C286.04 24.7323 285.604 22.8466 285.183 21.0584L288.104 20.3714ZM290.671 31.732C291.071 33.5771 291.475 35.48 291.88 37.4338L288.943 38.0429C288.54 36.0983 288.137 34.2042 287.739 32.3675L290.671 31.732ZM293.038 43.1495C293.409 45.0241 293.778 46.9359 294.143 48.8795L291.194 49.433C290.831 47.4992 290.464 45.5969 290.095 43.7314L293.038 43.1495ZM295.19 54.6171C295.524 56.5042 295.853 58.4151 296.174 60.3452L293.215 60.8371C292.896 58.918 292.569 57.0176 292.236 55.1407L295.19 54.6171ZM297.096 66.0953C297.391 68.0052 297.677 69.9293 297.952 71.8634L294.981 72.285C294.709 70.3636 294.425 68.4517 294.132 66.5534L297.096 66.0953ZM298.734 77.6443C298.981 79.5692 299.215 81.4998 299.435 83.4323L296.454 83.7713C296.236 81.8539 296.004 79.9376 295.758 78.0265L298.734 77.6443ZM300.049 89.2339C300.239 91.1762 300.412 93.1165 300.567 95.0507L297.576 95.2899C297.423 93.3741 297.252 91.4513 297.063 89.5256L300.049 89.2339ZM300.977 100.876C301.094 102.831 301.191 104.776 301.265 106.705L298.267 106.82C298.194 104.913 298.099 102.991 297.982 101.057L300.977 100.876ZM214.85 101.324C216.805 101.281 218.784 101.266 220.783 101.28L220.763 104.28C218.792 104.266 216.841 104.281 214.916 104.324L214.85 101.324ZM226.727 101.402C228.694 101.47 230.676 101.564 232.669 101.685L232.487 104.68C230.521 104.56 228.565 104.467 226.624 104.401L226.727 101.402ZM202.977 101.963C204.925 101.792 206.912 101.653 208.932 101.546L209.092 104.541C207.105 104.647 205.152 104.784 203.239 104.951L202.977 101.963ZM238.583 102.122C240.547 102.292 242.517 102.489 244.488 102.712L244.152 105.693C242.206 105.473 240.262 105.279 238.323 105.111L238.583 102.122ZM191.134 103.479C193.046 103.148 195.018 102.854 197.041 102.597L197.419 105.573C195.437 105.824 193.511 106.112 191.646 106.435L191.134 103.479ZM250.382 103.455C252.341 103.728 254.299 104.027 256.25 104.352L255.757 107.311C253.832 106.99 251.901 106.695 249.968 106.426L250.382 103.455ZM179.465 106.2C181.306 105.637 183.244 105.123 185.267 104.656L185.941 107.58C183.98 108.032 182.11 108.528 180.342 109.069L179.465 106.2ZM262.097 105.409C264.047 105.789 265.988 106.197 267.915 106.631L267.255 109.557C265.357 109.13 263.445 108.728 261.522 108.353L262.097 105.409ZM273.69 108.024C275.618 108.521 277.528 109.047 279.416 109.6L278.572 112.479C276.717 111.935 274.838 111.419 272.941 110.929L273.69 108.024ZM168.328 110.911C169.974 109.938 171.798 109.043 173.777 108.224L174.925 110.996C173.055 111.769 171.361 112.603 169.856 113.493L168.328 110.911ZM285.108 111.379C287.011 112.012 288.886 112.676 290.728 113.371L289.669 116.178C287.866 115.498 286.028 114.847 284.161 114.226L285.108 111.379ZM298.429 116.55C297.711 116.226 296.986 115.907 296.255 115.594L295.074 118.352C296.877 119.125 298.638 119.93 300.352 120.767L301.669 118.072C301.584 118.031 301.499 117.989 301.414 117.948C301.439 116.166 301.439 114.363 301.415 112.543L298.416 112.582C298.433 113.916 298.437 115.239 298.429 116.55ZM159.624 119.926C160.424 117.997 161.688 116.243 163.318 114.66L165.408 116.811C164.016 118.165 163.012 119.589 162.395 121.076L159.624 119.926ZM306.975 120.852C308.749 121.85 310.464 122.887 312.114 123.966L310.472 126.477C308.882 125.437 307.224 124.434 305.505 123.468L306.975 120.852ZM301.214 124.274C301.113 126.263 300.976 128.218 300.8 130.134L297.813 129.86C297.985 127.988 298.119 126.073 298.218 124.122L301.214 124.274ZM160.722 132.508C159.643 130.434 158.984 128.412 158.747 126.448L161.726 126.09C161.912 127.636 162.441 129.312 163.383 131.123L160.722 132.508ZM317.022 127.45C318.643 128.702 320.181 130.002 321.626 131.352L319.579 133.545C318.206 132.263 316.74 131.023 315.188 129.824L317.022 127.45ZM300.121 135.98C299.837 137.974 299.503 139.916 299.115 141.796L296.177 141.189C296.552 139.376 296.875 137.496 297.151 135.557L300.121 135.98ZM325.823 135.72C326.482 136.49 327.112 137.273 327.713 138.071C328.314 138.87 328.911 139.683 329.502 140.51L327.062 142.255C326.485 141.448 325.903 140.654 325.316 139.875C324.755 139.129 324.164 138.395 323.544 137.672L325.823 135.72ZM166.243 140.001C165.487 139.198 164.789 138.403 164.149 137.618L166.474 135.723C167.066 136.449 167.716 137.189 168.428 137.945C169.086 138.645 169.749 139.337 170.416 140.022L168.267 142.115C167.588 141.418 166.914 140.714 166.243 140.001ZM176.718 150.193C175.268 148.907 173.833 147.584 172.415 146.227L174.488 144.059C175.881 145.391 177.288 146.688 178.709 147.949L176.718 150.193ZM332.931 145.548C334.021 147.23 335.089 148.958 336.133 150.726L333.55 152.251C332.526 150.518 331.48 148.826 330.413 147.179L332.931 145.548ZM297.697 147.551C297.124 149.519 296.476 151.402 295.747 153.186L292.97 152.05C293.655 150.374 294.269 148.592 294.816 146.713L297.697 147.551ZM185.774 157.604C184.224 156.439 182.689 155.234 181.17 153.99L183.071 151.669C184.558 152.887 186.06 154.066 187.576 155.205L185.774 157.604ZM339.122 156.026C340.076 157.796 341.005 159.6 341.907 161.433L339.215 162.758C338.329 160.957 337.417 159.186 336.481 157.449L339.122 156.026ZM293.106 158.579C292.056 160.375 290.886 162.027 289.586 163.512L287.328 161.536C288.49 160.209 289.551 158.715 290.517 157.065L293.106 158.579ZM195.452 164.21C193.8 163.192 192.161 162.128 190.538 161.019L192.231 158.542C193.816 159.625 195.414 160.663 197.025 161.655L195.452 164.21ZM205.75 169.842C203.996 169.001 202.255 168.107 200.528 167.161L201.969 164.53C203.65 165.45 205.342 166.32 207.047 167.137L205.75 169.842ZM285.01 167.64C284.162 168.231 283.276 168.767 282.35 169.244C281.469 169.699 280.587 170.136 279.705 170.557L278.413 167.849C279.267 167.442 280.121 167.018 280.976 166.578C281.781 166.163 282.553 165.696 283.293 165.18L285.01 167.64ZM344.493 166.936C345.318 168.776 346.116 170.64 346.883 172.525L344.105 173.657C343.35 171.804 342.567 169.972 341.756 168.164L344.493 166.936ZM216.629 174.297C214.782 173.668 212.946 172.979 211.123 172.231L212.262 169.455C214.029 170.18 215.808 170.848 217.596 171.457L216.629 174.297ZM274.322 172.92C272.473 173.661 270.625 174.331 268.777 174.932L267.85 172.078C269.633 171.499 271.418 170.852 273.205 170.135L274.322 172.92ZM227.999 177.357C226.076 176.976 224.164 176.528 222.262 176.015L223.044 173.119C224.881 173.614 226.727 174.047 228.582 174.414L227.999 177.357ZM263.114 176.555C261.186 177.034 259.26 177.439 257.337 177.771L256.827 174.815C258.677 174.495 260.532 174.105 262.39 173.643L263.114 176.555ZM239.698 178.822C237.731 178.719 235.771 178.545 233.821 178.3L234.194 175.323C236.074 175.559 237.96 175.727 239.854 175.826L239.698 178.822ZM251.491 178.559C249.521 178.751 247.556 178.867 245.598 178.911L245.531 175.911C247.416 175.87 249.306 175.758 251.201 175.574L251.491 178.559ZM349.078 178.193C349.775 180.091 350.441 182.005 351.074 183.932L348.223 184.868C347.602 182.974 346.947 181.093 346.262 179.228L349.078 178.193ZM352.867 189.738C353.432 191.686 353.961 193.643 354.453 195.607L351.543 196.336C351.06 194.408 350.54 192.486 349.986 190.572L352.867 189.738ZM355.819 201.534C356.239 203.526 356.618 205.52 356.955 207.513L353.997 208.013C353.667 206.061 353.295 204.106 352.884 202.152L355.819 201.534ZM357.844 213.537C358.099 215.563 358.307 217.585 358.468 219.598L355.477 219.836C355.321 217.87 355.117 215.894 354.868 213.911L357.844 213.537ZM358.803 225.687C358.864 227.736 358.871 229.772 358.822 231.791L355.823 231.718C355.87 229.756 355.863 227.774 355.804 225.776L358.803 225.687ZM358.493 237.894C358.32 239.946 358.083 241.975 357.779 243.975L354.813 243.524C355.106 241.593 355.336 239.631 355.504 237.642L358.493 237.894ZM356.638 250.001C356.177 252.016 355.64 253.995 355.025 255.932L352.165 255.023C352.755 253.169 353.27 251.27 353.713 249.332L356.638 250.001ZM352.895 261.711C352.09 263.616 351.197 265.471 350.212 267.268L347.581 265.827C348.515 264.122 349.364 262.359 350.132 260.543L352.895 261.711ZM346.951 272.52C345.77 274.207 344.492 275.828 343.115 277.377L340.873 275.384C342.172 273.923 343.378 272.393 344.494 270.799L346.951 272.52ZM338.734 281.754C337.21 283.107 335.591 284.385 333.873 285.584L332.156 283.124C333.778 281.992 335.306 280.785 336.743 279.51L338.734 281.754ZM0.93934 296.931C0.353553 296.345 0.353553 295.395 0.93934 294.809L10.4853 285.263C11.0711 284.678 12.0208 284.678 12.6066 285.263C13.1924 285.849 13.1924 286.799 12.6066 287.385L4.89561 295.096V296.644L12.6066 304.355C13.1924 304.941 13.1924 305.891 12.6066 306.477C12.0208 307.062 11.0711 307.062 10.4853 306.477L0.93934 296.931ZM328.615 288.833C326.847 289.795 324.994 290.684 323.053 291.495L321.896 288.727C323.744 287.955 325.505 287.11 327.181 286.198L328.615 288.833ZM317.27 293.598C315.364 294.194 313.385 294.724 311.332 295.184L310.676 292.257C312.651 291.814 314.55 291.306 316.374 290.735L317.27 293.598ZM305.282 296.304C303.313 296.596 301.282 296.829 299.19 297.003L298.942 294.013C300.973 293.845 302.939 293.618 304.842 293.336L305.282 296.304ZM293.141 297.329C292.114 297.356 291.073 297.37 290.018 297.37H287.082V294.37H290.018C291.047 294.37 292.061 294.357 293.062 294.33L293.141 297.329ZM10.9621 297.37V294.37H16.9064V297.37H10.9621ZM22.9082 297.37V294.37H28.9246V297.37H22.9082ZM34.9619 297.37V294.37H40.9746V297.37H34.9619ZM46.9301 297.37V294.37H52.9405V297.37H46.9301ZM59 297.37V294.37H64.943V297.37H59ZM70.9625 297.37V294.37H76.9725V297.37H70.9625ZM82.9554 297.37V294.37H89.0021V297.37H82.9554ZM94.9618 297.37V294.37H100.994V297.37H94.9618ZM106.972 297.37V294.37H112.99V297.37H106.972ZM118.981 297.37V294.37H124.992V297.37H118.981ZM130.989 297.37V294.37H136.996V297.37H130.989ZM142.996 297.37V294.37H149.001V297.37H142.996ZM155.002 297.37V294.37H161.007V297.37H155.002ZM167.008 297.37V294.37H173.013V297.37H167.008ZM179.014 297.37V294.37H185.018V297.37H179.014ZM191.02 297.37V294.37H197.024V297.37H191.02ZM203.025 297.37V294.37H209.031V297.37H203.025ZM215.03 297.37V294.37H221.039V297.37H215.03ZM227.032 297.37V294.37H233.048V297.37H227.032ZM239.029 297.37V294.37H245.059V297.37H239.029ZM251.015 297.37V294.37H257.066V297.37H251.015ZM263.046 297.37V294.37H269.06V297.37H263.046ZM275.077 297.37V294.37H281.017V297.37H275.077Z"
        fill="#DADADA" />
</svg>