<svg width="68" height="70" viewBox="0 0 68 70" fill="none" xmlns="http://www.w3.org/2000/svg">
<path d="M5 14C5 10.134 8.13401 7 12 7H61C64.866 7 68 10.134 68 14V63C68 66.866 64.866 70 61 70H12C8.13401 70 5 66.866 5 63V14Z" fill="#FEF08A"/>
<path d="M55.2472 0H6.62966C2.96954 0 0 2.96954 0 6.62966V55.2472C0 58.9073 2.96954 61.8769 6.62966 61.8769H55.2472C58.9073 61.8769 61.8769 58.9073 61.8769 55.2472V6.62966C61.8769 2.96954 58.9073 0 55.2472 0ZM38.3001 52.9959C37.1399 53.203 36.7118 52.4848 36.7118 51.8909C36.7118 51.1451 36.7394 47.333 36.7394 44.253C36.7394 42.0984 36.0212 40.731 35.1786 40.0128C40.289 39.4465 45.6756 38.7421 45.6756 29.9164C45.6756 27.4026 44.7779 26.1457 43.3138 24.5298C43.5486 23.9358 44.3359 21.4912 43.079 18.3144C41.1592 17.7205 36.767 20.7868 36.767 20.7868C34.9439 20.2757 32.9688 20.0133 31.0213 20.0133C29.0738 20.0133 27.0987 20.2757 25.2756 20.7868C25.2756 20.7868 20.8834 17.7205 18.9636 18.3144C17.7067 21.4773 18.4802 23.922 18.7288 24.5298C17.2647 26.1457 16.5742 27.4026 16.5742 29.9164C16.5742 38.7007 21.726 39.4465 26.8363 40.0128C26.1734 40.6067 25.5794 41.6288 25.3723 43.0928C24.0602 43.6867 20.7039 44.7088 18.7012 41.173C17.4443 38.9907 15.1792 38.8112 15.1792 38.8112C12.9417 38.7835 15.0272 40.22 15.0272 40.22C16.5189 40.9105 17.5686 43.5624 17.5686 43.5624C18.9084 47.6645 25.317 46.2833 25.317 46.2833C25.317 48.2032 25.3447 51.3246 25.3447 51.8909C25.3447 52.4848 24.9303 53.203 23.7563 52.9959C14.6405 49.9435 8.25946 41.2697 8.25946 31.1318C8.25946 18.4526 17.9553 8.82574 30.6346 8.82574C43.3138 8.82574 53.5898 18.4526 53.5898 31.1318C53.6036 41.2697 47.4159 49.9573 38.3001 52.9959ZM24.7507 44.5569C24.4883 44.6121 24.2397 44.5016 24.2121 44.3221C24.1845 44.1149 24.364 43.9353 24.6264 43.8801C24.8889 43.8525 25.1375 43.963 25.1651 44.1425C25.2065 44.3221 25.027 44.5016 24.7507 44.5569ZM23.4386 44.4326C23.4386 44.6121 23.2314 44.764 22.9552 44.764C22.6513 44.7917 22.4442 44.6397 22.4442 44.4326C22.4442 44.253 22.6514 44.1011 22.9276 44.1011C23.19 44.0734 23.4386 44.2254 23.4386 44.4326ZM21.5464 44.2806C21.4912 44.4602 21.2149 44.543 20.9801 44.4602C20.7177 44.4049 20.5381 44.1978 20.5934 44.0182C20.6486 43.8386 20.9249 43.7558 21.1597 43.811C21.4359 43.8939 21.6155 44.1011 21.5464 44.2806ZM19.8476 43.5348C19.7232 43.6867 19.4608 43.6591 19.2536 43.4519C19.0465 43.2724 18.9912 43.0099 19.1293 42.8856C19.2536 42.7337 19.5161 42.7613 19.7232 42.9685C19.9028 43.1481 19.9719 43.4243 19.8476 43.5348ZM18.5907 42.2779C18.4664 42.3608 18.2316 42.2779 18.0796 42.0707C17.9277 41.8636 17.9277 41.6288 18.0796 41.5321C18.2316 41.4078 18.4664 41.5045 18.5907 41.7116C18.7426 41.9188 18.7426 42.1674 18.5907 42.2779ZM17.6929 40.9382C17.5686 41.0625 17.3614 40.9934 17.2095 40.8553C17.0576 40.6757 17.0299 40.4686 17.1543 40.3719C17.2786 40.2476 17.4857 40.3166 17.6377 40.4548C17.7896 40.6343 17.8172 40.8415 17.6929 40.9382ZM16.7675 39.9161C16.7123 40.0404 16.5327 40.068 16.3808 39.9713C16.2012 39.8885 16.1184 39.7365 16.1736 39.6122C16.2289 39.5294 16.3808 39.4879 16.5603 39.557C16.7399 39.6537 16.8228 39.8056 16.7675 39.9161Z" fill="#D97706"/>
</svg>
