<svg width="68" height="70" viewBox="0 0 68 70" fill="none" xmlns="http://www.w3.org/2000/svg">
<path d="M5 14C5 10.134 8.13401 7 12 7H61C64.866 7 68 10.134 68 14V63C68 66.866 64.866 70 61 70H12C8.13401 70 5 66.866 5 63V14Z" fill="#FEF08A"/>
<path d="M57.4571 0H4.40596C1.97509 0 0 2.00271 0 4.46121V57.4156C0 59.8741 1.97509 61.8769 4.40596 61.8769H57.4571C59.888 61.8769 61.8769 59.8741 61.8769 57.4156V4.46121C61.8769 2.00271 59.888 0 57.4571 0ZM18.7012 53.0373H9.53014V23.5077H18.715V53.0373H18.7012ZM14.1157 19.4746C11.1737 19.4746 8.79812 17.0852 8.79812 14.1571C8.79812 11.229 11.1737 8.83955 14.1157 8.83955C17.0438 8.83955 19.4332 11.229 19.4332 14.1571C19.4332 17.099 17.0576 19.4746 14.1157 19.4746ZM53.0787 53.0373H43.9077V38.673C43.9077 35.2477 43.8386 30.8417 39.1426 30.8417C34.3638 30.8417 33.6317 34.5709 33.6317 38.4244V53.0373H24.4607V23.5077H33.2588V27.5407H33.3831C34.6124 25.2203 37.6095 22.7757 42.0707 22.7757C51.3523 22.7757 53.0787 28.8943 53.0787 36.8499V53.0373Z" fill="#D97706"/>
<path fill-rule="evenodd" clip-rule="evenodd" d="M6.53014 56.0373V20.5077H8.7452C6.9412 18.9797 5.79812 16.698 5.79812 14.1571C5.79812 9.57721 9.51182 5.83955 14.1157 5.83955C18.7006 5.83955 22.4332 9.57214 22.4332 14.1571C22.4332 16.705 21.2917 18.9828 19.4914 20.5077H36.2588V21.0242C37.921 20.2508 39.8709 19.7757 42.0707 19.7757C47.4526 19.7757 51.3133 21.6146 53.5928 25.2291C55.6729 28.5275 56.0787 32.8042 56.0787 36.8499V56.0373H40.9077V38.673C40.9077 36.8299 40.8522 35.4767 40.496 34.5751C40.3518 34.2102 40.2182 34.0906 40.1485 34.0418C40.0858 33.9979 39.8359 33.8417 39.1426 33.8417C38.3376 33.8417 37.9208 33.9973 37.7179 34.1096C37.5324 34.2123 37.3746 34.3604 37.2216 34.6376C36.8378 35.333 36.6317 36.553 36.6317 38.4244V56.0373H6.53014ZM36.2588 24.4517C34.9303 25.3308 33.9612 26.4495 33.3831 27.5407H33.2588V23.5077H24.4607V53.0373H33.6317V38.4244C33.6317 34.5709 34.3638 30.8417 39.1426 30.8417C43.8386 30.8417 43.9077 35.2477 43.9077 38.673V53.0373H53.0787V36.8499C53.0787 28.8943 51.3523 22.7757 42.0707 22.7757C39.7076 22.7757 37.7552 23.4616 36.2588 24.4517ZM57.4571 3H4.40596C3.66832 3 3 3.62295 3 4.46121V57.4156C3 58.2539 3.66832 58.8769 4.40596 58.8769H57.4571C58.2069 58.8769 58.8769 58.2416 58.8769 57.4156V4.46121C58.8769 3.63523 58.2069 3 57.4571 3ZM4.40596 0H57.4571C59.888 0 61.8769 2.00271 61.8769 4.46121V57.4156C61.8769 59.8741 59.888 61.8769 57.4571 61.8769H4.40596C1.97509 61.8769 0 59.8741 0 57.4156V4.46121C0 2.00271 1.97509 0 4.40596 0ZM18.715 53.0373V23.5077H9.53014V53.0373H18.715ZM8.79812 14.1571C8.79812 17.0852 11.1737 19.4746 14.1157 19.4746C17.0576 19.4746 19.4332 17.099 19.4332 14.1571C19.4332 11.229 17.0438 8.83955 14.1157 8.83955C11.1737 8.83955 8.79812 11.229 8.79812 14.1571Z" fill="#D97706"/>
</svg>
